<?xml version="1.0" standalone="no"?>
<!DOCTYPE svg PUBLIC "-//W3C//DTD SVG 20010904//EN"
 "http://www.w3.org/TR/2001/REC-SVG-20010904/DTD/svg10.dtd">
<svg version="1.0" xmlns="http://www.w3.org/2000/svg"
 width="390.000000pt" height="390.000000pt" viewBox="0 0 390.000000 390.000000"
 preserveAspectRatio="xMidYMid meet">

<g transform="translate(0.000000,390.000000) scale(0.100000,-0.100000)"
fill="#000000" stroke="none">
<path d="M1849 3482 c-71 -37 -96 -86 -105 -204 -6 -74 -10 -87 -26 -92 -18
-4 -20 -10 -13 -68 9 -83 13 -96 33 -102 12 -4 21 -24 28 -61 l10 -55 -348 0
-348 0 -17 26 c-13 20 -22 25 -43 20 -15 -3 -32 0 -38 6 -9 9 -17 9 -34 0 -13
-7 -39 -13 -58 -14 -57 -3 -65 -12 -85 -92 -17 -67 -17 -82 -6 -141 10 -49 11
-114 6 -253 -8 -213 0 -267 56 -369 51 -92 53 -93 131 -93 64 0 75 3 175 58
122 66 189 122 224 186 13 25 27 46 30 46 10 0 73 -90 75 -107 1 -10 13 -53
28 -95 28 -83 34 -165 15 -228 l-12 -38 -66 30 c-86 38 -135 47 -210 37 -70
-10 -109 -27 -147 -67 -50 -52 -61 -95 -68 -259 -7 -191 -2 -209 140 -488 56
-110 104 -214 108 -231 6 -29 5 -32 -23 -37 -25 -5 -32 -13 -41 -49 -22 -82
-52 -121 -164 -215 -23 -19 -26 -29 -26 -82 0 -57 1 -61 27 -67 40 -11 240 12
267 30 13 8 48 18 77 22 99 13 95 7 102 136 3 76 1 117 -6 127 -6 7 -12 36
-13 65 0 28 -6 76 -12 106 -6 30 -13 107 -17 170 l-7 115 64 -62 c62 -61 65
-63 117 -63 36 0 90 13 168 40 64 22 135 40 157 40 23 0 92 -18 155 -40 80
-28 131 -40 170 -40 54 0 56 1 114 61 32 33 60 59 62 57 5 -6 -14 -279 -21
-289 -10 -16 -25 -157 -29 -277 -4 -131 -2 -135 98 -146 32 -3 69 -14 83 -22
16 -11 66 -20 143 -27 138 -12 151 -8 151 54 0 57 -14 84 -63 117 -51 36 -110
119 -128 181 -10 33 -20 47 -41 55 -19 7 -28 17 -28 33 0 13 45 110 100 216
54 106 112 233 129 283 29 88 29 91 22 239 -6 123 -11 157 -28 190 -39 74 -94
111 -182 123 -78 11 -136 1 -218 -37 l-62 -29 -10 30 c-20 56 -13 168 14 248
14 40 25 80 25 88 0 14 68 102 79 102 3 0 14 -18 24 -39 33 -73 114 -139 256
-210 79 -39 90 -42 155 -39 l70 3 37 65 c66 113 67 122 72 482 5 324 5 328
-16 360 -18 26 -30 33 -61 35 -22 1 -52 7 -67 14 -15 6 -34 7 -41 3 -7 -5 -23
-7 -35 -6 -14 2 -27 -5 -39 -22 l-16 -26 -349 0 -349 0 7 48 c5 33 14 55 35
74 18 17 28 36 28 55 0 15 3 45 6 65 6 34 4 39 -20 48 -25 9 -26 13 -26 78 0
83 -22 161 -52 190 -63 59 -173 69 -259 24z m-409 -706 c-153 -55 -190 -85
-245 -200 -33 -68 -56 -101 -91 -130 -37 -31 -48 -36 -55 -25 -14 22 -28 76
-40 161 -14 88 -13 91 56 135 24 15 50 39 60 55 l16 28 182 0 182 -1 -65 -23z
m1343 -6 c10 -17 30 -37 45 -45 60 -33 76 -54 74 -99 -2 -57 -30 -187 -43
-202 -9 -11 -21 -5 -60 28 -36 30 -58 61 -85 120 -57 121 -93 148 -294 221 -8
3 66 6 165 6 l181 1 17 -30z"/>
<path d="M521 3228 c-5 -13 -12 -31 -15 -40 -4 -14 -14 -16 -58 -11 -77 8 -82
-2 -87 -153 l-3 -123 -117 -3 -116 -3 0 -45 0 -45 117 -3 117 -3 5 -32 c3 -18
8 -72 11 -122 3 -49 10 -107 16 -127 l10 -37 66 -3 c66 -3 67 -3 75 -35 l9
-33 70 0 c65 0 70 1 79 26 6 14 10 102 10 195 l0 169 34 0 c29 0 36 4 45 31
21 59 16 69 -33 69 l-44 0 -7 98 c-7 106 -23 230 -31 243 -3 5 -37 9 -75 9
-63 0 -70 -2 -78 -22z"/>
<path d="M3231 3233 c-12 -23 -31 -191 -31 -273 l0 -60 -41 0 c-41 0 -41 0
-35 -31 3 -17 6 -40 6 -50 0 -15 7 -19 33 -19 l32 0 3 -173 c3 -234 -3 -219
84 -215 72 3 72 3 82 36 9 32 9 32 72 32 53 0 65 3 74 20 6 11 16 83 22 160
l12 140 118 0 118 0 0 50 0 50 -115 0 -115 0 0 88 c-1 103 -12 171 -31 184 -8
5 -37 6 -66 3 l-51 -5 -9 38 -9 37 -71 3 c-61 2 -73 0 -82 -15z"/>
</g>
</svg>
